<svg width="39" height="38" viewBox="0 0 39 38" fill="none" xmlns="http://www.w3.org/2000/svg">

<circle cx="19.2554" cy="19" r="19" fill="#FF9688"/>

<svg width="30" height="30" viewBox="-8 -4 30 13" fill="none" xmlns="http://www.w3.org/2000/svg">
<path d="M5.11937 12L0.639371 0.799999H2.60737L5.27937 7.6C5.40737 7.93067 5.51937 8.22933 5.61537 8.496C5.72204 8.76267 5.8127 9.008 5.88737 9.232C5.96204 9.44533 6.03137 9.648 6.09537 9.84C6.15937 10.032 6.22337 10.224 6.28737 10.416L5.87137 10.432C5.94604 10.176 6.02604 9.90933 6.11137 9.632C6.1967 9.35467 6.2927 9.05067 6.39937 8.72C6.5167 8.38933 6.65537 8.016 6.81537 7.6L9.29537 0.799999H11.3114L6.79937 12H5.11937ZM16.6606 12.16C16.0526 12.16 15.4873 12.08 14.9646 11.92C14.4526 11.76 13.9833 11.52 13.5566 11.2C13.1406 10.8693 12.7673 10.464 12.4366 9.984L13.6206 8.624C14.1433 9.37067 14.6446 9.888 15.1246 10.176C15.6046 10.464 16.1753 10.608 16.8366 10.608C17.242 10.608 17.61 10.544 17.9406 10.416C18.2713 10.288 18.5326 10.112 18.7246 9.888C18.9166 9.664 19.0126 9.408 19.0126 9.12C19.0126 8.928 18.9806 8.74667 18.9166 8.576C18.8526 8.40533 18.7513 8.25067 18.6126 8.112C18.4846 7.97333 18.314 7.84533 18.1006 7.728C17.898 7.61067 17.658 7.50933 17.3806 7.424C17.1033 7.328 16.7833 7.248 16.4206 7.184C15.8446 7.06667 15.3433 6.912 14.9166 6.72C14.49 6.528 14.1326 6.288 13.8446 6C13.5566 5.712 13.3433 5.38667 13.2046 5.024C13.066 4.65067 12.9966 4.23467 12.9966 3.776C12.9966 3.328 13.0926 2.912 13.2846 2.528C13.4873 2.144 13.7593 1.81333 14.1006 1.536C14.4526 1.248 14.8633 1.02933 15.3326 0.879999C15.802 0.719999 16.3086 0.639999 16.8526 0.639999C17.4286 0.639999 17.9566 0.714666 18.4366 0.863999C18.9166 1.01333 19.3433 1.23733 19.7166 1.536C20.09 1.824 20.3993 2.18133 20.6446 2.608L19.4286 3.808C19.2153 3.456 18.9753 3.16267 18.7086 2.928C18.442 2.68267 18.1486 2.50133 17.8286 2.384C17.5086 2.256 17.1673 2.192 16.8046 2.192C16.3886 2.192 16.026 2.256 15.7166 2.384C15.4073 2.512 15.162 2.69333 14.9806 2.928C14.81 3.152 14.7246 3.41867 14.7246 3.728C14.7246 3.952 14.7673 4.16 14.8526 4.352C14.938 4.53333 15.066 4.69867 15.2366 4.848C15.418 4.98667 15.658 5.11467 15.9566 5.232C16.2553 5.33867 16.6126 5.43467 17.0286 5.52C17.6153 5.648 18.138 5.81333 18.5966 6.016C19.0553 6.208 19.4446 6.43733 19.7646 6.704C20.0846 6.97067 20.3246 7.26933 20.4846 7.6C20.6553 7.93067 20.7406 8.288 20.7406 8.672C20.7406 9.38667 20.5753 10.0053 20.2446 10.528C19.914 11.0507 19.4446 11.456 18.8366 11.744C18.2286 12.0213 17.5033 12.16 16.6606 12.16Z" fill="white"/>
</svg>

</svg>