<svg width="442" height="552" viewBox="-50 0 442 552" fill="none" xmlns="http://www.w3.org/2000/svg">
    <path d="M220.743 -3.09453C278.297 -35.3943 351.138 -14.9217 383.438 42.6323C415.738 100.186 395.265 173.027 337.711 205.327" stroke="white" stroke-width="66" stroke-linecap="round" stroke-linejoin="round"/>
    <path d="M104.212 -211.761C46.6576 -179.461 26.185 -106.62 58.4848 -49.066C90.7846 8.48803 163.625 28.9606 221.179 -3.33917" stroke="white" stroke-width="66" stroke-linecap="round" stroke-linejoin="round"/>
    <circle cx="392.5" cy="515.5" r="36.5" fill="#EAF900"/>
    <path d="M266.211 264C208.657 296.3 188.184 369.141 220.484 426.695C237.658 457.297 266.294 477.416 298 484.692" stroke="white" stroke-width="66" stroke-linecap="round" stroke-linejoin="round"/>
    <!-- ellipse 2 blue ellipsewith circle-->
    <circle cx="81.2709" cy="331.689" r="36.5" transform="rotate(-10 81.2709 331.689)" fill="#EAF900"/>
    <path d="M124.67 248.834C167.434 198.565 161.349 123.147 111.08 80.3832C84.351 57.645 50.5119 48.7172 18.252 52.8989" stroke="#0000FE" stroke-width="66" stroke-linecap="round" stroke-linejoin="round"/>
</svg>